<svg xmlns="http://www.w3.org/2000/svg" shape-rendering="geometricPrecision" text-rendering="geometricPrecision" image-rendering="optimizeQuality" fill-rule="evenodd" clip-rule="evenodd" viewBox="0 0 512 512"><g fill-rule="nonzero"><path fill="#999" d="M256 0c70.68 0 134.69 28.66 181.01 74.99C483.34 121.31 512 185.32 512 256c0 70.68-28.66 134.69-74.99 181.01C390.69 483.34 326.68 512 256 512c-70.68 0-134.69-28.66-181.01-74.99C28.66 390.69 0 326.68 0 256c0-70.68 28.66-134.69 74.99-181.01C121.31 28.66 185.32 0 256 0z"/><path fill="#fff" d="M256 19.48c65.3 0 124.46 26.48 167.25 69.27l1.09 1.18c42.14 42.71 68.18 101.37 68.18 166.06 0 65.31-26.5 124.46-69.29 167.25l-1.18 1.09c-42.73 42.16-101.4 68.19-166.05 68.19-65.23 0-124.37-26.51-167.18-69.33-42.84-42.74-69.33-101.89-69.33-167.2 0-65.31 26.48-124.45 69.27-167.24C131.55 45.96 190.7 19.48 256 19.48z"/><path fill="#0D5EAF" d="M292.3 469.37h-72.59c-90.18-15.22-161.39-86.24-176.94-176.3v-74.15C60.35 117.06 149.12 39.59 256 39.59c119.52 0 216.41 96.89 216.41 216.4 0 107.15-77.89 196.12-180.11 213.38z"/><path fill="#fff" d="M187.31 50.72v81.4h96.36V83.93h103.57a217.45 217.45 0 0 1 46.21 48.19H283.67v48.18h-96.36v96.36h284.1c-1.59 16.68-5.04 32.81-10.18 48.17H50.78a214.26 214.26 0 0 1-8.01-31.76v-16.41h96.36V180.3H53.22a216.03 216.03 0 0 1 25.34-48.18h60.57V73.84c14.9-9.58 31.07-17.4 48.18-23.12zM458.79 180.3c5.71 15.31 9.74 31.45 11.87 48.19H283.67V180.3h175.12zm-20.73 192.72a218.064 218.064 0 0 1-42.28 48.18H116.23a217.552 217.552 0 0 1-42.28-48.18h364.11z"/></g></svg>