<svg xmlns="http://www.w3.org/2000/svg" shape-rendering="geometricPrecision" text-rendering="geometricPrecision" image-rendering="optimizeQuality" fill-rule="evenodd" clip-rule="evenodd" viewBox="0 0 512 512"><g fill-rule="nonzero"><path fill="#4D4D4D" d="M256-.001c70.684 0 134.69 28.664 181.013 74.988C483.337 121.31 512.001 185.316 512.001 256c0 70.684-28.664 134.69-74.988 181.013C390.69 483.337 326.684 512.001 256 512.001c-70.677 0-134.69-28.664-181.013-74.988C28.663 390.69-.001 326.676-.001 256c0-70.684 28.664-134.69 74.988-181.013C121.31 28.663 185.316-.001 256-.001z"/><path fill="#fff" d="M256.001 19.596c65.278 0 124.383 26.466 167.163 69.243 42.776 42.779 69.243 101.884 69.243 167.162s-26.467 124.383-69.246 167.16c-42.777 42.779-101.882 69.246-167.16 69.246-65.278 0-124.383-26.467-167.162-69.243-42.777-42.78-69.243-101.885-69.243-167.163S46.062 131.618 88.839 88.839c42.779-42.777 101.884-69.243 167.162-69.243z"/><path fill="#0038B8" d="M426.32 122.481H85.683C125.3 72.014 186.862 39.594 256.001 39.594c69.136 0 130.701 32.42 170.319 82.887zm-1.503 268.909c-39.662 49.392-100.541 81.019-168.816 81.019-68.274 0-129.154-31.627-168.816-81.019h337.632zM256.001 327.195l10.997-19.041h-21.994l10.997 19.041zm20.565-35.608l20.567-35.609-20.567-35.61h-41.13l-20.567 35.61 20.564 35.609h41.133zm30.082-52.085l11.05-19.134h-22.099l11.049 19.134zm-90.2-19.134h-22.147l11.08 19.184 11.067-19.184zm39.553-35.605l-11.023 19.086h22.047l-11.024-19.086zm-50.662 87.714l-11.038 19.11h22.076l-11.038-19.11zm90.265 19.11h22.094l-11.05-19.134-11.044 19.134zm-122.674 4.212l22.927-39.739-30.156-52.211h60.28l30.02-52.038 30.056 52.038h60.109l-7.05 12.357-22.956 39.766 30.139 52.182h-60.26l-30.038 52.037-30.056-52.037h-60.244l7.229-12.355z"/></g></svg>