<svg xmlns="http://www.w3.org/2000/svg" shape-rendering="geometricPrecision" text-rendering="geometricPrecision" image-rendering="optimizeQuality" fill-rule="evenodd" clip-rule="evenodd" viewBox="0 0 512 512"><g fill-rule="nonzero"><path fill="#4D4D4D" d="M256-.001c70.684 0 134.69 28.664 181.013 74.988C483.337 121.31 512.001 185.316 512.001 256c0 70.684-28.664 134.69-74.988 181.013C390.69 483.337 326.684 512.001 256 512.001c-70.677 0-134.69-28.664-181.013-74.988C28.663 390.69-.001 326.676-.001 256c0-70.684 28.664-134.69 74.988-181.013C121.31 28.663 185.316-.001 256-.001z"/><path fill="#fff" d="M256.001 19.596c65.278 0 124.383 26.466 167.163 69.243 42.776 42.779 69.243 101.884 69.243 167.162s-26.467 124.383-69.246 167.16c-42.777 42.779-101.882 69.246-167.16 69.246-65.278 0-124.383-26.467-167.162-69.243-42.777-42.78-69.243-101.885-69.243-167.163S46.062 131.618 88.839 88.839c42.779-42.777 101.884-69.243 167.162-69.243z"/><path fill="#DA251D" d="M256.001 39.594c119.518 0 216.408 96.886 216.408 216.407 0 119.518-96.89 216.408-216.408 216.408-119.521 0-216.407-96.89-216.407-216.408 0-119.521 96.886-216.407 216.407-216.407z"/><path fill="#ff0" d="M252.273 294.553l51.249 37.218-19.567-60.264 51.271-37.235h-63.365l-19.588-60.337-19.589 60.337H169.32l51.271 37.235-19.567 60.264z"/></g></svg>