<?xml version="1.0" encoding="utf-8"?><svg version="1.1" id="Layer_1" xmlns="http://www.w3.org/2000/svg" xmlns:xlink="http://www.w3.org/1999/xlink" x="0px" y="0px" viewBox="0 0 80.31 122.88" style="enable-background:new 0 0 80.31 122.88" xml:space="preserve"><style type="text/css">.st0{fill-rule:evenodd;clip-rule:evenodd;fill:#5E990B;} .st1{fill-rule:evenodd;clip-rule:evenodd;fill:#CCDB39;} .st2{fill-rule:evenodd;clip-rule:evenodd;fill:#8C6239;} .st3{fill-rule:evenodd;clip-rule:evenodd;fill:#704828;} .st4{fill-rule:evenodd;clip-rule:evenodd;fill:#7F573C;} .st5{fill-rule:evenodd;clip-rule:evenodd;fill:#537918;}</style><g><path class="st0" d="M17.77,26.09c1.36-2.73,2.84-5.11,4.47-7.08c1.69-2.04,3.52-3.65,5.51-4.78c1.79-1.01,4.03-1.56,6.44-1.71 c0.57-2.12,2.56-3.02,5-2.36l5.04,1.21c2.07,0.13,3.66,1.36,3.54,4.39c1.58,0.98,2.91,2.15,3.84,3.5l0,0 c0.48,0.71,0.9,1.47,1.22,2.28c0.33,0.8,0.58,1.67,0.76,2.61c0.55,2.92,0.53,6.08,0.52,9.41c-0.01,3.46-0.03,7.12,0.63,10.82 c0.18,1.06,0.38,2.04,0.58,2.93c0.2,0.92,0.44,1.88,0.7,2.87c1.1,4.18,2.81,8.19,4.52,12.18c2.88,6.74,5.74,13.43,5.86,21.18 c0.15,9.11-2.9,18.66-8.41,26.04c-5.07,6.78-12.21,11.78-20.9,13.01c-8.75,1.24-16.47-1.32-22.56-6.16 c-6.7-5.33-11.43-13.43-13.4-22.26c-3.51-15.71,1.9-30.48,7.2-44.92l0.65-1.77c1.3-3.55,2.67-7.09,4.13-10.64 c1.47-3.59,3.01-7.13,4.63-10.63L17.77,26.09L17.77,26.09L17.77,26.09z M24.51,20.87c-1.48,1.79-2.84,3.99-4.11,6.53 c-1.62,3.52-3.15,7.03-4.58,10.52c-1.43,3.49-2.79,7-4.08,10.53l-0.65,1.77C5.94,64.27,0.67,78.64,4,93.5 c1.83,8.19,6.19,15.69,12.37,20.59c5.49,4.37,12.44,6.67,20.32,5.55c7.84-1.11,14.33-5.67,18.96-11.85 c5.14-6.88,7.97-15.76,7.83-24.23c-0.12-7.15-2.87-13.59-5.63-20.07c-1.74-4.09-3.5-8.2-4.65-12.58c-0.25-0.94-0.49-1.94-0.72-2.98 c-0.24-1.08-0.45-2.09-0.61-3.05c-0.69-3.9-0.68-7.71-0.66-11.34c0.01-3.18,0.03-6.19-0.48-8.86c-0.14-0.73-0.33-1.41-0.59-2.04 c-0.25-0.63-0.56-1.2-0.91-1.72v-0.01c-1.69-2.45-5.26-4.23-9.13-5.03c-3.96-0.82-8.16-0.62-10.88,0.9 C27.52,17.74,25.96,19.12,24.51,20.87L24.51,20.87L24.51,20.87z"/><path class="st1" d="M24.39,20.91c-1.49,1.81-2.86,4.02-4.14,6.58c-1.63,3.54-3.17,7.08-4.62,10.59 c-1.44,3.51-2.81,7.05-4.11,10.61l-0.65,1.79C5.69,64.61,0.38,79.08,3.73,94.05c1.84,8.25,6.24,15.8,12.45,20.74 c5.53,4.4,12.53,6.71,20.46,5.59c7.9-1.12,14.43-5.71,19.09-11.94c5.17-6.93,8.02-15.87,7.89-24.4c-0.12-7.2-2.89-13.68-5.67-20.21 c-1.76-4.12-3.52-8.26-4.68-12.67c-0.25-0.95-0.5-1.95-0.72-3c-0.24-1.08-0.45-2.11-0.62-3.07c-0.69-3.92-0.68-7.77-0.66-11.42 c0.01-3.2,0.03-6.24-0.48-8.92c-0.14-0.73-0.33-1.42-0.6-2.05c-0.25-0.63-0.57-1.21-0.92-1.73v-0.01c-1.7-2.47-5.3-4.26-9.19-5.06 c-3.99-0.83-8.22-0.62-10.96,0.91C27.42,17.76,25.84,19.15,24.39,20.91L24.39,20.91L24.39,20.91z"/><path class="st2" d="M31.62,58.94c0.84,0,1.68,0.09,2.49,0.26c0.19-0.01,0.39-0.01,0.58-0.01l0,0c5.21,0,9.9,2.92,13.29,7.64 c3.29,4.6,5.32,10.94,5.32,17.92c0,6.98-2.04,13.32-5.32,17.92c-3.37,4.72-8.06,7.64-13.29,7.64c-5.21,0-9.91-2.92-13.29-7.64 c-1.55-2.17-2.83-4.74-3.74-7.57c-1.73-3.67-2.73-8.07-2.73-12.8C14.94,69.39,22.4,58.94,31.62,58.94L31.62,58.94L31.62,58.94z"/><path class="st3" d="M42.16,64.2c3.74,4.28,6.13,10.8,6.13,18.09c0,12.89-7.47,23.35-16.69,23.35c-1.98,0-3.89-0.48-5.65-1.38 c2.52,2.31,5.51,3.64,8.71,3.64c4.4,0,8.41-2.53,11.34-6.63c3.01-4.22,4.87-10.06,4.87-16.53c0-6.47-1.86-12.32-4.87-16.53 C44.89,66.62,43.59,65.26,42.16,64.2L42.16,64.2L42.16,64.2z"/><path class="st0" d="M44.24,7.87c1.14-1.84,2.57-3.47,4.47-4.77c4.91-3.35,12.55-3.73,18.18-2.36c4.51,1.1,9.49,3.38,13.43,6.17 c-3.67,2.68-9.18,4.97-15.27,7.01c-4.66,1.56-9.23,2.02-14.02,1.01l0.26,0.18l-0.2-0.08c-2.63-0.95-5.2-1.92-7.58-3l0.72-4.1 L44.24,7.87L44.24,7.87z"/><path class="st4" d="M43.66,11.41c-1.45-0.66-2.94-0.74-4.3-1.35l1.21-6.64c0.25-1.2,1.42-1.97,2.62-1.72 c1.2,0.24,1.97,1.42,1.72,2.62C44.34,7.11,44.11,8.61,43.66,11.41L43.66,11.41z"/><path class="st5" d="M45.33,10.58C57.6,7.87,60.65,6.44,73.18,7.8C61.04,10.49,57.76,11.08,45.33,10.58L45.33,10.58z"/></g></svg>