<?xml version="1.0" encoding="utf-8"?><svg version="1.1" id="Layer_1" xmlns="http://www.w3.org/2000/svg" xmlns:xlink="http://www.w3.org/1999/xlink" x="0px" y="0px" viewBox="0 0 112.81 122.88" style="enable-background:new 0 0 112.81 122.88" xml:space="preserve"><style type="text/css">.st0{fill:#7A2E00;} .st1{fill:#FEDA00;} .st2{fill:#FDF2B4;}</style><g><path class="st0" d="M80.07,14.68c0.35,0.35,0.71,0.68,1.08,1c0.41,0.35,0.84,0.69,1.3,1.04c0.74,0.55,1.52,1.11,2.39,1.69 c0.82,0.54,1.7,1.07,2.66,1.56c0.74,0.38,1.58,0.72,2.43,1.06c0.57,0.23,1.13,0.45,1.39,0.56c8.17,2.2,14.57,6.76,18.23,15.01 c3.56,8.03,4.41,19.56,1.57,35.84c-0.02,0.1-0.04,0.19-0.07,0.29l0,0c-0.88,2.69-1.86,5.28-2.93,7.76 c-1.06,2.47-2.21,4.81-3.42,7.01c-2.68,4.85-5.76,9.23-9.36,13.14c-3.6,3.91-7.7,7.34-12.39,10.31 c-6.52,4.11-14.49,7.73-22.33,9.87c-7.07,1.93-14.07,2.67-19.9,1.53c-4.31-0.84-7.95-2.55-10.34-4.75c-1.59-1.46-2.65-3.16-3.04-5 c-0.41-1.93-0.09-3.93,1.12-5.91c1.35-2.22,3.87-4.41,7.8-6.39c0.07-0.04,0.15-0.07,0.23-0.1l0,0c7.46-2.66,14.08-5.62,19.75-8.93 c5.61-3.28,10.28-6.89,13.91-10.89c4.16-4.58,6.71-10.09,8.12-15.99c1.72-7.17,1.74-14.92,0.89-22.26c-0.2-1.77-0.5-3.45-0.87-5.06 c-0.38-1.64-0.83-3.18-1.34-4.61c-1.09-3.1-1.3-3.24-3.18-4.55c-0.38-0.27-0.82-0.58-1.35-0.95c-1.84-2.37-3.32-3.73-5.08-6.9 l-7.73,3.82l0.04,0.07c0.01,0.02,0.03,0.05,0.04,0.07c0.17,0.33,0.35,0.65,0.54,0.96c0.21,0.34,0.44,0.68,0.69,1.03 c0.4,0.56,0.83,1.14,1.31,1.74c0.46,0.57,0.96,1.14,1.53,1.71c0.44,0.44,0.96,0.87,1.48,1.3c0.35,0.29,0.7,0.58,0.86,0.72 c5.29,3.42,8.8,8.1,9.51,14.79c0.7,6.5-1.32,14.87-7.04,25.78c-0.03,0.07-0.07,0.13-0.12,0.19l0,0c-1.24,1.71-2.52,3.32-3.85,4.84 c-1.32,1.51-2.66,2.91-4.02,4.19c-3,2.83-6.18,5.23-9.62,7.19c-3.44,1.96-7.13,3.46-11.13,4.49c-5.56,1.44-12.03,2.19-18.08,1.92 c-5.45-0.24-10.59-1.3-14.46-3.44c-2.86-1.58-5.06-3.61-6.25-5.72c-0.8-1.4-1.16-2.84-1.02-4.24c0.15-1.46,0.83-2.81,2.14-3.94 c1.47-1.27,3.75-2.25,6.98-2.76c0.06-0.01,0.12-0.02,0.18-0.02l0,0c5.89-0.19,11.26-0.78,16.03-1.84 c4.72-1.05,8.86-2.55,12.34-4.56c3.99-2.3,7.05-5.63,9.4-9.49c2.85-4.69,4.63-10.18,5.7-15.58c0.26-1.3,0.43-2.56,0.53-3.79 c0.1-1.25,0.13-2.44,0.1-3.58c-0.07-2.45-0.18-2.59-1.22-3.95c-0.21-0.28-0.45-0.6-0.74-0.98l-1.66-2.25l-1,0.49l0,0h-0.01 c-1.27,0.62-2.81,0.1-3.43-1.18l-3.91-7.96l0,0c-0.61-1.25-0.11-2.77,1.14-3.41L74.36,0.37c0.1-0.06,0.2-0.11,0.31-0.16 c1.31-0.56,2.82,0.05,3.37,1.36l3.7,8.65l0,0c0.53,1.25,0,2.7-1.23,3.31l-1.06,0.52l0,0c0.1,0.1,0.2,0.2,0.55,0.54 C80.02,14.63,80.05,14.65,80.07,14.68L80.07,14.68L80.07,14.68z"/><path class="st1" d="M56.9,25.2l-4.33,2.14l1.35,1.83c0.26,0.35,0.5,0.66,0.7,0.94c1.57,2.05,1.74,2.28,1.83,5.71 c0.04,1.29,0.01,2.6-0.1,3.91c-0.11,1.33-0.3,2.7-0.58,4.12c-1.13,5.7-3.03,11.52-6.09,16.57c-2.59,4.27-6,7.97-10.47,10.55 c-3.75,2.16-8.17,3.77-13.19,4.89c-4.94,1.1-10.46,1.71-16.5,1.91c-2.58,0.42-4.32,1.14-5.37,2.04c-0.69,0.59-1.04,1.26-1.11,1.95 c-0.08,0.75,0.15,1.59,0.64,2.45c0.92,1.63,2.71,3.25,5.08,4.56c3.44,1.9,8.12,2.85,13.13,3.07c5.75,0.25,11.91-0.46,17.19-1.83 c3.74-0.97,7.18-2.37,10.4-4.2c3.22-1.83,6.21-4.09,9.04-6.76c1.3-1.23,2.57-2.55,3.82-3.98c1.22-1.4,2.42-2.91,3.62-4.56 c5.37-10.27,7.28-18.03,6.65-23.94C72.01,40.91,69,36.92,64.46,34c-0.1-0.05-0.2-0.12-0.29-0.2c-0.46-0.4-0.66-0.57-0.85-0.73 c-0.59-0.49-1.18-0.98-1.68-1.48c-0.66-0.66-1.23-1.31-1.75-1.96c-0.49-0.61-0.96-1.25-1.41-1.87c-0.29-0.4-0.56-0.81-0.81-1.21 c-0.25-0.4-0.47-0.8-0.67-1.18v-0.01L56.9,25.2L56.9,25.2L56.9,25.2z"/><path class="st1" d="M75.57,15.98l-3.18,1.57c-1.08,3.03,0.91,4.43,2.42,6.1c0.48,0.35,0.91,0.65,1.28,0.91 c2.85,1.99,3.15,2.2,4.68,6.55c0.58,1.64,1.07,3.32,1.47,5.04c0.41,1.75,0.73,3.58,0.95,5.51c0.89,7.75,0.85,15.98-0.99,23.68 c-1.56,6.52-4.41,12.65-9.07,17.78c-3.91,4.31-8.91,8.18-14.87,11.66c-5.87,3.43-12.68,6.48-20.32,9.21 c-3.13,1.59-5.06,3.23-6.03,4.81c-0.63,1.04-0.81,2.03-0.62,2.94c0.21,0.99,0.85,1.97,1.83,2.87c1.85,1.7,4.8,3.05,8.37,3.74 c5.18,1.01,11.55,0.32,18.05-1.46c7.46-2.04,15.04-5.47,21.24-9.39c4.39-2.77,8.22-5.98,11.57-9.63c3.36-3.66,6.26-7.77,8.79-12.35 c1.16-2.11,2.25-4.32,3.25-6.65c0.98-2.29,1.91-4.72,2.76-7.31c2.65-15.34,1.91-26.04-1.32-33.34 c-3.09-6.99-8.57-10.86-15.58-12.74c-0.15-0.03-0.3-0.07-0.45-0.13c-0.75-0.32-1.07-0.45-1.39-0.58c-0.96-0.39-1.91-0.77-2.76-1.2 c-1.11-0.57-2.11-1.17-3.05-1.78c-0.88-0.58-1.74-1.2-2.57-1.81c-0.54-0.4-1.05-0.8-1.53-1.21c-0.48-0.41-0.93-0.82-1.33-1.23 l-0.01-0.01c-0.06-0.06-0.34-0.34-0.6-0.6C76.15,16.5,75.8,16.15,75.57,15.98L75.57,15.98L75.57,15.98z"/><path class="st2" d="M48.84,23.45l2.43-1.2c0.47-0.39,1-0.73,1.56-0.99c0.45-0.21,0.92-0.37,1.4-0.47l21.82-10.79l-1.66-3.88 L47.18,20.07L48.84,23.45L48.84,23.45L48.84,23.45z"/><path class="st0" d="M88.89,38.01c-0.25-1.11,0.46-2.21,1.57-2.46c1.11-0.25,2.21,0.46,2.46,1.57c4.35,19.64,1.39,34.45-6.55,45.99 C78.49,94.57,65.78,102.67,50.51,109c-1.05,0.44-2.26-0.06-2.7-1.12c-0.44-1.05,0.06-2.26,1.12-2.7 c14.61-6.05,26.7-13.71,34.04-24.4C90.27,70.17,92.97,56.41,88.89,38.01L88.89,38.01L88.89,38.01z"/><path class="st0" d="M60.49,42.78c0.08-0.83,0.81-1.44,1.64-1.37c0.83,0.08,1.44,0.81,1.37,1.64 c-1.35,14.69-6.72,24.38-14.84,30.67c-8.06,6.24-18.74,9.06-30.82,10.07c-0.83,0.07-1.57-0.55-1.64-1.39 c-0.07-0.83,0.55-1.57,1.39-1.64c11.55-0.97,21.7-3.61,29.22-9.44C54.27,65.54,59.22,56.54,60.49,42.78L60.49,42.78L60.49,42.78z"/></g></svg>