<?xml version="1.0" encoding="utf-8"?>

<!DOCTYPE svg PUBLIC "-//W3C//DTD SVG 1.1//EN" "http://www.w3.org/Graphics/SVG/1.1/DTD/svg11.dtd">
<!-- Uploaded to: SVG Repo, www.svgrepo.com, Generator: SVG Repo Mixer Tools -->
<svg version="1.1" id="Food_Icons" xmlns="http://www.w3.org/2000/svg" xmlns:xlink="http://www.w3.org/1999/xlink" 
	 width="800px" height="800px" viewBox="0 0 75.884 46.806" enable-background="new 0 0 75.884 46.806" xml:space="preserve">
<g id="_x33_">
	<g>
		<path fill="#FEF1EE" d="M73.945,18.257c0-3.325-2.699-6.024-6.024-6.024c-3.325,0-6.024,2.699-6.024,6.024H45.879V28.55h16.018
			c0,3.325,2.699,6.024,6.024,6.024c3.325,0,6.024-2.699,6.024-6.024c0-2.179-1.155-4.093-2.893-5.151
			C72.79,22.349,73.945,20.435,73.945,18.257z"/>
	</g>
	<g>
		<path fill="#EFE2E0" d="M45.879,23.353v5.147h16.018c0,3.325,2.699,6.024,6.024,6.024s6.024-2.699,6.024-6.024
			c0-2.179-1.155-4.093-2.893-5.151L45.879,23.353z"/>
	</g>
	<g>
		<path d="M75.884,18.257c0,1.898-0.689,3.719-1.884,5.137c1.205,1.416,1.884,3.225,1.884,5.156c0,4.391-3.572,7.963-7.963,7.963
			c-3.723,0-6.857-2.567-7.725-6.024H45.879c-1.071,0-1.939-0.868-1.939-1.939V18.257c0-1.071,0.868-1.939,1.939-1.939h14.318
			c0.868-3.457,4.002-6.024,7.725-6.024C72.312,10.294,75.884,13.866,75.884,18.257z M47.818,26.611h14.078
			c1.071,0,1.939,0.868,1.939,1.939c0,2.253,1.833,4.086,4.086,4.086c2.252,0,4.085-1.833,4.085-4.086
			c0-1.439-0.734-2.746-1.963-3.495c-0.579-0.353-0.931-0.982-0.93-1.66c0.001-0.678,0.356-1.305,0.937-1.656
			c1.225-0.74,1.956-2.042,1.956-3.483c0-2.253-1.833-4.086-4.085-4.086c-2.254,0-4.086,1.833-4.086,4.086
			c0,1.071-0.868,1.939-1.939,1.939H47.818V26.611z"/>
	</g>
	<g>
		<path fill="#EDB072" d="M53.283,23.399c0,6.831-4.755,12.541-11.127,14.014c-1.795,0.415-3.484,1.181-4.889,2.373
			c-4.035,3.422-9.353,5.375-15.128,5.045C11.405,44.218,2.645,35.495,1.982,24.764C1.21,12.29,11.093,1.939,23.399,1.939
			c5.274,0,10.106,1.901,13.841,5.059c1.416,1.197,3.111,1.978,4.917,2.396C48.529,10.868,53.283,16.576,53.283,23.399z"/>
	</g>
	<g>
		<path fill="#F1BA7B" d="M22.139,44.85C11.405,44.236,2.645,35.513,1.982,24.782C1.21,12.309,11.093,1.957,23.399,1.957
			c0,0,8.881,8.683,8.881,21.446S22.139,44.85,22.139,44.85z"/>
	</g>
	<g>
		<path d="M23.396,46.806c-0.454,0-0.91-0.013-1.366-0.039C10.227,46.093,0.777,36.685,0.046,24.884
			c-0.404-6.539,1.834-12.757,6.301-17.51C10.753,2.687,16.968,0,23.4,0c5.523,0,10.883,1.959,15.092,5.518
			c1.122,0.948,2.502,1.617,4.102,1.987c7.435,1.72,12.627,8.256,12.627,15.894c0,7.644-5.193,14.183-12.628,15.903
			c-1.604,0.371-2.974,1.031-4.072,1.963C34.277,44.864,28.95,46.806,23.396,46.806z M23.4,3.877
			c-5.445,0-10.497,2.185-14.227,6.152c-3.727,3.965-5.594,9.155-5.256,14.615c0.598,9.682,8.651,17.698,18.332,18.251
			c5.046,0.29,9.934-1.34,13.764-4.588c1.573-1.336,3.493-2.272,5.706-2.784c5.667-1.311,9.624-6.297,9.624-12.125
			c0-5.823-3.958-10.805-9.623-12.116c-2.207-0.511-4.135-1.455-5.732-2.804C32.479,5.512,28.008,3.877,23.4,3.877z"/>
	</g>
	<g>
		<path fill="#FFF2BC" d="M23.315,15.661c-0.497,0-0.992-0.189-1.371-0.567l-1.198-1.197c-0.757-0.757-0.757-1.985,0-2.742
			c0.755-0.757,1.984-0.757,2.741-0.001l1.198,1.197c0.757,0.757,0.757,1.985,0,2.742C24.309,15.472,23.812,15.661,23.315,15.661z"
			/>
	</g>
	<g>
		<path fill="#FFF2BC" d="M31.384,27.393c-0.497,0-0.992-0.189-1.371-0.567c-0.757-0.757-0.757-1.985,0-2.742l1.197-1.197
			c0.755-0.757,1.984-0.757,2.741-0.001c0.757,0.757,0.757,1.985,0,2.742l-1.197,1.197C32.377,27.203,31.881,27.393,31.384,27.393z"
			/>
	</g>
	<g>
		<path fill="#FFF2BC" d="M14.046,27.393c-0.497,0-0.992-0.189-1.371-0.568l-1.197-1.197c-0.757-0.757-0.757-1.985,0-2.742
			c0.758-0.757,1.985-0.756,2.741,0.001l1.197,1.197c0.757,0.757,0.757,1.985,0,2.742C15.038,27.203,14.541,27.393,14.046,27.393z"
			/>
	</g>
</g>
</svg>