<svg xmlns="http://www.w3.org/2000/svg" shape-rendering="geometricPrecision" text-rendering="geometricPrecision" image-rendering="optimizeQuality" fill-rule="evenodd" clip-rule="evenodd" viewBox="0 0 365 512.57"><g fill-rule="nonzero"><path fill="#3C0A2F" d="M36.56 0h291.88c4.79 0 8.67 3.88 8.67 8.66v238.26c0 4.79-3.88 8.67-8.67 8.67H36.56c-4.79 0-8.67-3.88-8.67-8.67V8.66c0-4.78 3.88-8.66 8.67-8.66z"/><path fill="#7F3B3C" d="M319.78 17.33h-55.9v67.09h55.9V17.33zm-73.23 0h-55.88v67.09h55.88V17.33zm-73.21 0h-55.88v67.09h55.88V17.33zm-73.21 0H45.22v67.09h54.91V17.33zm-54.91 84.42v67.68c.97-.37 2.02-.58 3.12-.58h51.79v-67.1H45.22zm0 83.85v52.66h54.91v-52.08H48.34c-1.1 0-2.15-.21-3.12-.58zm72.24 52.66h55.88v-52.08h-55.88v52.08zm73.21 0h55.88v-52.08h-55.88v52.08zm73.21 0h55.9v-52.08h-55.9v52.08zm55.9-69.41v-67.1h-55.9v67.1h55.9zm-73.23 0v-67.1h-55.88v67.1h55.88zm-73.21 0v-67.1h-55.88v67.1h55.88z"/><path fill="#3E0F33" d="M338.11 338.47v157.8c0 4.5-1.83 8.57-4.78 11.52a16.26 16.26 0 0 1-11.51 4.78H39.13c-.43 0-.84-.03-1.26-.08-4-.3-7.59-2.04-10.25-4.7a16.242 16.242 0 0 1-4.78-11.52V338.91L15 342.57c-5.26 2.46-11.52.19-13.98-5.07-.67-1.44-.99-2.96-.99-4.45H0v-86.13c0-5.82 4.72-10.54 10.54-10.54h343.92c5.82 0 10.54 4.72 10.54 10.54v87.55c0 5.83-4.72 10.55-10.54 10.55-1.87 0-3.62-.49-5.15-1.34l-11.2-5.21z"/><path fill="#E92934" d="M43.93 329.1v162.38h273.1V328.67l-50.52-23.5-78.25 43.96a10.49 10.49 0 0 1-10.16.09l-82.13-44.36-52.04 24.24z"/></g></svg>