<?xml version="1.0" encoding="iso-8859-1"?>
<!-- Uploaded to: SVG Repo, www.svgrepo.com, Generator: SVG Repo Mixer Tools -->
<svg height="800px" width="800px" version="1.1" id="Layer_1" xmlns="http://www.w3.org/2000/svg" xmlns:xlink="http://www.w3.org/1999/xlink" 
	 viewBox="0 0 511.996 511.996" xml:space="preserve">
<path style="fill:#F0D3A3;" d="M249.024,478.883l-47.569-30.199c-8.84-5.612-13.204-16.377-10.276-26.431
	c7.324-25.153-2.422-53.19-25.624-67.92c-23.083-14.656-52.423-11.651-72.069,5.448c-8.009,6.971-19.623,7.901-28.587,2.211
	l-47.573-30.201c-10.379-6.589-12.481-20.857-4.459-30.174c50.563-58.726,138.114-73.11,205.435-30.372
	s91.556,128.088,59.924,198.834C273.209,481.303,259.403,485.472,249.024,478.883z"/>
<path style="opacity:0.08;enable-background:new    ;" d="M75.846,354.592l-47.573-30.201c-10.379-6.589-12.481-20.857-4.459-30.174
	c7.77-9.024,16.417-16.997,25.725-23.881c-13.525,8.349-25.934,18.812-36.671,31.282c-8.022,9.317-5.921,23.584,4.459,30.174
	L64.9,361.993c8.964,5.691,20.578,4.76,28.586-2.211c1.288-1.121,2.62-2.178,3.986-3.176
	C90.492,359.371,82.451,358.786,75.846,354.592z M259.97,471.482l-47.569-30.199c-8.84-5.612-13.204-16.377-10.276-26.431
	c7.324-25.154-2.422-53.19-25.624-67.92c-22.88-14.527-51.902-11.694-71.543,5.009c18.546-9.761,41.673-9.625,60.598,2.392
	c23.202,14.73,32.949,42.766,25.624,67.92c-2.927,10.054,1.436,20.818,10.276,26.431l47.569,30.199
	c9.09,5.771,20.809,3.289,26.951-4.957C270.754,475.327,264.966,474.653,259.97,471.482z"/>
<path style="opacity:0.08;enable-background:new    ;" d="M218.303,271.246c-27.109-17.211-57.5-25.151-87.434-24.669l70.061,29.1
	c4.515,1.876,8.105,5.464,9.98,9.98l67.877,163.425c1.155,2.781,2.878,5.08,4.951,6.874
	C306.479,388.296,281.199,311.174,218.303,271.246z"/>
<path style="fill:#C39774;" d="M426.189,349.095l-5.42-16.259l16.259,5.42c6.018,2.006,11.744-3.719,9.738-9.738l-7.34-22.021
	c0.51-7.514-3.566-15.142-11.348-18.373l-163.425-67.877c-4.515-1.876-8.105-5.464-9.98-9.98L186.795,46.841
	c-3.232-7.782-10.86-11.858-18.373-11.348l-22.021-7.34c-6.018-2.006-11.744,3.719-9.738,9.737l5.42,16.259l-16.259-5.42
	c-6.018-2.006-11.744,3.719-9.738,9.737l5.42,16.259l-16.259-5.42c-6.018-2.006-11.744,3.719-9.738,9.738l5.42,16.259l-16.259-5.42
	c-6.018-2.006-11.744,3.719-9.738,9.737l5.42,16.259l-16.259-5.42c-6.018-2.006-11.744,3.719-9.737,9.738l5.42,16.259l-16.259-5.42
	c-6.018-2.006-11.744,3.719-9.737,9.738l7.34,22.021c-0.509,7.514,3.566,15.142,11.348,18.373l163.425,67.877
	c4.515,1.876,8.105,5.464,9.98,9.98L293.75,422.45c3.232,7.782,10.859,11.858,18.373,11.348l22.021,7.34
	c6.018,2.007,11.744-3.719,9.738-9.737l-5.42-16.259l16.259,5.42c6.018,2.006,11.744-3.719,9.738-9.738l-5.42-16.259l16.259,5.42
	c6.018,2.006,11.744-3.719,9.738-9.738l-5.42-16.259l16.259,5.42c6.018,2.006,11.744-3.719,9.738-9.738l-5.42-16.259l16.259,5.42
	C422.469,360.838,428.194,355.112,426.189,349.095z"/>
<path style="opacity:0.08;enable-background:new    ;" d="M343.881,431.403l-0.709-2.128l-21.865-7.288
	c-7.514,0.509-15.142-3.566-18.373-11.348l-67.878-163.425c-1.876-4.515-5.464-8.105-9.98-9.98L61.651,169.357
	c-7.782-3.232-11.857-10.859-11.348-18.373l-6.631-19.893l-0.156-0.052c-6.018-2.006-11.744,3.719-9.737,9.738l7.34,22.021
	c-0.509,7.514,3.566,15.142,11.348,18.373l163.425,67.877c4.515,1.876,8.105,5.464,9.98,9.98l67.877,163.425
	c3.232,7.782,10.859,11.858,18.373,11.348l22.021,7.34C340.16,443.147,345.886,437.421,343.881,431.403z"/>
<path style="opacity:0.15;enable-background:new    ;" d="M218.904,208.247c-2.78,0-5.481-1.454-6.951-4.045
	c-1.296-2.285-31.817-56.089-36.812-66.508c-1.906-3.976-0.228-8.743,3.748-10.65c3.975-1.904,8.744-0.228,10.65,3.748
	c4.758,9.927,35.986,64.975,36.3,65.529c2.176,3.835,0.831,8.707-3.003,10.884C221.592,207.912,220.238,208.247,218.904,208.247z"/>
<path style="opacity:0.15;enable-background:new    ;" d="M196.012,215.518c-1.479,0-2.973-0.41-4.309-1.269
	c-7.881-5.066-40.216-22.947-47.497-25.511c-4.159-1.465-6.343-6.023-4.878-10.181c1.465-4.159,6.022-6.342,10.181-4.878
	c9.353,3.293,42.643,21.879,50.827,27.14c3.709,2.384,4.784,7.323,2.399,11.032C201.209,214.224,198.638,215.518,196.012,215.518z"
	/>
<path style="opacity:0.15;enable-background:new    ;" d="M340.669,300.563c-1.157,0-2.332-0.253-3.446-0.787
	c-10.42-4.995-64.223-35.515-66.508-36.812c-3.835-2.176-5.18-7.049-3.003-10.884c2.176-3.834,7.049-5.178,10.884-3.003
	c0.555,0.315,55.603,31.541,65.53,36.301c3.976,1.905,5.653,6.674,3.748,10.65C346.501,298.892,343.645,300.563,340.669,300.563z"/>
<path style="opacity:0.15;enable-background:new    ;" d="M293.709,336.046c-3.292,0-6.374-2.052-7.53-5.334
	c-2.564-7.282-20.446-39.616-25.511-47.497c-2.384-3.708-1.309-8.649,2.399-11.032c3.709-2.385,8.648-1.311,11.032,2.399
	c5.26,8.186,23.846,41.473,27.14,50.827c1.465,4.159-0.72,8.717-4.878,10.181C295.485,335.899,294.59,336.046,293.709,336.046z"/>
<path style="opacity:0.08;enable-background:new    ;" d="M439.425,306.496c0.51-7.514-3.566-15.142-11.348-18.373l-114.395-47.513
	c-0.503,0.937-0.882,1.967-1.079,3.086l-6.789,38.504c-1.672,9.485,3.355,18.878,12.163,22.756l-3.075-1.337
	c-6.092-2.649-13.059,1.093-14.211,7.635l-6.789,38.504c-1.672,9.485,3.355,18.878,12.163,22.756l-3.074-1.337
	c-6.092-2.649-13.059,1.093-14.212,7.635l-3.92,22.234l8.891,21.406c3.232,7.782,10.859,11.858,18.373,11.348l22.021,7.34
	c6.018,2.006,11.744-3.719,9.738-9.738l-5.42-16.259l16.259,5.42c6.018,2.005,11.744-3.719,9.738-9.738l-5.42-16.259l16.259,5.42
	c6.018,2.006,11.744-3.719,9.738-9.738l-5.42-16.259l16.259,5.42c6.018,2.006,11.744-3.719,9.738-9.738l-5.42-16.259l16.259,5.42
	c4.777,1.592,9.354-1.691,10.042-6.121c-1.189-0.863-2.471-1.625-3.859-2.236l3.075,1.337c0.282,0.122,0.567,0.217,0.853,0.313
	c0.073-0.977-0.029-1.998-0.373-3.03l-5.42-16.259l16.259,5.42c1.341,0.447,2.662,0.493,3.893,0.254l3.174-18.004L439.425,306.496z"
	/>
<g>
	<path style="fill:#F0D3A3;" d="M383.793,29.84l107.648,46.816c8.861,3.854,13.926,13.28,12.249,22.797l-6.789,38.504
		c-1.154,6.542-8.12,10.285-14.212,7.635L375.04,98.776c-8.861-3.854-13.926-13.28-12.249-22.797l6.789-38.504
		C370.734,30.933,377.701,27.19,383.793,29.84z"/>
	<path style="fill:#F0D3A3;" d="M371.881,97.398l107.649,46.816c8.861,3.854,13.926,13.28,12.249,22.797l-6.789,38.504
		c-1.154,6.542-8.12,10.285-14.212,7.635l-107.648-46.816c-8.861-3.854-13.926-13.28-12.249-22.797l6.789-38.504
		C358.822,98.492,365.789,94.748,371.881,97.398z"/>
	<path style="fill:#F0D3A3;" d="M359.969,164.956l107.648,46.816c8.861,3.854,13.926,13.28,12.249,22.797l-6.789,38.504
		c-1.154,6.542-8.12,10.285-14.211,7.635l-107.649-46.816c-8.861-3.854-13.926-13.28-12.249-22.797l6.789-38.504
		C346.91,166.05,353.876,162.307,359.969,164.956z"/>
	<path style="fill:#F0D3A3;" d="M348.055,232.515l107.649,46.816c8.861,3.854,13.926,13.28,12.249,22.797l-6.789,38.504
		c-1.154,6.542-8.12,10.285-14.212,7.635l-107.648-46.816c-8.861-3.854-13.926-13.28-12.249-22.797l6.789-38.504
		C334.998,233.609,341.964,229.866,348.055,232.515z"/>
	<path style="fill:#F0D3A3;" d="M336.143,300.074l107.648,46.816c8.861,3.854,13.926,13.28,12.249,22.797l-6.789,38.504
		c-1.154,6.542-8.121,10.285-14.212,7.635l-107.649-46.816c-8.861-3.854-13.926-13.28-12.249-22.797l6.789-38.504
		C323.085,301.168,330.051,297.425,336.143,300.074z"/>
	<path style="fill:#F0D3A3;" d="M324.231,367.632l107.649,46.816c8.861,3.854,13.926,13.28,12.249,22.797l-6.789,38.504
		c-1.154,6.542-8.12,10.285-14.211,7.635L315.48,436.569c-8.861-3.854-13.926-13.28-12.249-22.797l6.789-38.504
		C311.173,368.727,318.139,364.983,324.231,367.632z"/>
</g>
<path style="opacity:0.1;enable-background:new    ;" d="M371.881,97.398l107.649,46.816c8.861,3.854,13.926,13.28,12.249,22.797
	l-6.789,38.504c-1.154,6.542-8.12,10.285-14.212,7.635l-107.648-46.816c-8.861-3.854-13.926-13.28-12.249-22.797l6.789-38.504
	C358.822,98.492,365.789,94.748,371.881,97.398z"/>
<path style="opacity:0.1;enable-background:new    ;" d="M348.055,232.515l107.649,46.816c8.861,3.854,13.926,13.28,12.249,22.797
	l-6.789,38.504c-1.154,6.542-8.12,10.285-14.212,7.635l-107.648-46.816c-8.861-3.854-13.926-13.28-12.249-22.797l6.789-38.504
	C334.998,233.609,341.964,229.866,348.055,232.515z"/>
<path style="opacity:0.1;enable-background:new    ;" d="M324.231,367.632l107.649,46.816c8.861,3.854,13.926,13.28,12.249,22.797
	l-6.789,38.504c-1.154,6.542-8.12,10.285-14.211,7.635L315.48,436.569c-8.861-3.854-13.926-13.28-12.249-22.797l6.789-38.504
	C311.173,368.727,318.139,364.983,324.231,367.632z"/>
<path style="opacity:0.1;enable-background:new    ;" d="M329.509,442.632c-8.861-3.854-13.926-13.28-12.248-22.797l6.789-38.504
	c1.154-6.542,8.12-10.285,14.211-7.635l3.074,1.337c-8.807-3.878-13.835-13.27-12.162-22.756l6.789-38.504
	c1.154-6.542,8.12-10.285,14.212-7.635l3.074,1.337c-8.807-3.878-13.835-13.27-12.162-22.756l6.789-38.504
	c1.154-6.542,8.121-10.285,14.212-7.635l3.074,1.337c-8.807-3.878-13.835-13.27-12.162-22.756l6.789-38.504
	c1.154-6.542,8.12-10.285,14.211-7.635l3.075,1.337c-8.808-3.878-13.837-13.27-12.163-22.756l6.789-38.505
	c1.154-6.542,8.12-10.285,14.211-7.635l3.075,1.337c-8.808-3.878-13.837-13.27-12.163-22.756l6.789-38.505
	c1.117-6.334,7.681-10.026,13.627-7.85l-13.445-5.847c-6.092-2.649-13.059,1.093-14.212,7.635l-6.789,38.504
	c-1.672,9.485,3.356,18.878,12.163,22.756l-3.075-1.337c-6.092-2.649-13.059,1.093-14.212,7.635l-6.789,38.505
	c-1.672,9.485,3.356,18.879,12.163,22.756l-3.075-1.337c-6.092-2.649-13.059,1.093-14.212,7.635l-6.789,38.505
	c-1.672,9.485,3.355,18.877,12.162,22.756l-3.074-1.337c-6.092-2.649-13.059,1.093-14.212,7.635l-6.789,38.505
	c-1.672,9.485,3.355,18.877,12.162,22.756l-3.074-1.337c-6.092-2.649-13.059,1.093-14.212,7.635l-6.789,38.504
	c-1.672,9.485,3.355,18.877,12.162,22.756l-3.074-1.337c-6.092-2.649-13.059,1.093-14.211,7.635l-6.789,38.504
	c-1.678,9.517,3.386,18.943,12.249,22.797l107.649,46.816c0.194,0.084,0.39,0.144,0.585,0.215L329.509,442.632z"/>
<path d="M494.626,69.335L386.977,22.518c-5.159-2.244-10.962-2.002-15.92,0.66c-4.957,2.663-8.36,7.369-9.338,12.911l-6.789,38.505
	c-1.069,6.06-0.175,12.076,2.299,17.327c-3.914,2.762-6.576,6.932-7.421,11.727l-6.789,38.505
	c-1.068,6.06-0.174,12.076,2.299,17.327c-3.914,2.761-6.576,6.932-7.422,11.727l-6.789,38.504
	c-1.069,6.06-0.173,12.076,2.299,17.327c-3.486,2.46-5.969,6.04-7.071,10.181l-58.618-24.346c-2.583-1.073-4.596-3.086-5.669-5.669
	L194.168,43.778c-4.125-9.93-13.81-16.313-24.473-16.313h-0.108l-20.663-6.888c-5.673-1.89-11.821-0.439-16.048,3.789
	c-4.227,4.227-5.678,10.376-3.788,16.046l0.371,1.112l-1.112-0.371c-5.673-1.89-11.821-0.44-16.048,3.788
	c-4.227,4.227-5.679,10.376-3.788,16.048l0.371,1.112l-1.112-0.37c-5.67-1.893-11.82-0.44-16.046,3.787
	c-4.228,4.227-5.68,10.376-3.789,16.048l0.37,1.111l-1.111-0.37c-5.673-1.888-11.821-0.437-16.048,3.789
	c-4.227,4.227-5.678,10.376-3.788,16.046l0.371,1.113l-1.112-0.371c-5.671-1.889-11.82-0.44-16.048,3.788
	c-4.227,4.227-5.679,10.376-3.789,16.048l0.37,1.111l-1.111-0.37c-5.672-1.889-11.821-0.439-16.048,3.789
	c-4.227,4.227-5.679,10.376-3.788,16.046l6.888,20.664c-0.044,10.705,6.348,20.441,16.313,24.579l163.425,67.877
	c2.542,1.056,4.528,3.026,5.613,5.551c-33.117-19.693-72.101-27.325-110.344-21.479c-39.451,6.027-75.42,25.885-101.277,55.918
	c-5.341,6.204-7.716,14.405-6.517,22.501c1.199,8.089,5.845,15.24,12.746,19.621l47.573,30.202
	c12.015,7.626,27.329,6.452,38.106-2.929c17.384-15.13,43.106-17.076,62.549-4.73c19.58,12.431,28.725,36.671,22.238,58.948
	c-3.868,13.282,1.75,27.84,13.662,35.403l47.569,30.199c4.556,2.892,9.786,4.381,15.068,4.381c2.719,0,5.451-0.395,8.111-1.195
	c7.837-2.359,14.249-7.998,17.59-15.472c5.11-11.429,8.876-23.325,11.281-35.543c3.384,2.11,7.25,3.455,11.351,3.871
	c1.304,0.839,2.685,1.589,4.147,2.225l107.649,46.816c2.344,1.02,4.82,1.526,7.289,1.526c2.968-0.001,5.925-0.732,8.63-2.185
	c4.957-2.663,8.361-7.369,9.338-12.911l6.789-38.504c1.069-6.06,0.173-12.076-2.299-17.327c3.914-2.762,6.576-6.932,7.422-11.727
	l6.788-38.504c1.069-6.06,0.175-12.077-2.298-17.328c3.913-2.762,6.576-6.932,7.421-11.727l6.789-38.504
	c1.069-6.06,0.175-12.076-2.299-17.327c3.914-2.762,6.576-6.932,7.422-11.727l6.789-38.504c1.069-6.061,0.175-12.076-2.299-17.327
	c3.914-2.761,6.576-6.932,7.421-11.727l6.789-38.504c1.068-6.06,0.173-12.077-2.299-17.327c3.914-2.762,6.576-6.932,7.422-11.727
	l6.789-38.504C513.879,87.636,506.919,74.681,494.626,69.335z M270.94,466.821c-1.447,3.236-4.223,5.678-7.616,6.7
	c-3.435,1.034-6.992,0.545-10.021-1.377l-47.569-30.198c-5.95-3.778-8.784-10.957-6.89-17.459
	c8.461-29.057-3.469-60.676-29.01-76.891c-25.365-16.104-58.915-13.568-81.588,6.166c-5.403,4.703-13.066,5.302-19.067,1.493
	l-47.573-30.204c-3.027-1.921-4.984-4.934-5.51-8.483c-0.519-3.505,0.51-7.055,2.822-9.742c23.374-27.147,55.901-45.1,91.589-50.552
	c36.033-5.504,72.794,2.207,103.517,21.71c5.536,3.515,10.872,7.438,15.912,11.647l53.483,128.766
	C281.991,435.191,277.801,451.474,270.94,466.821z M302.157,373.882l-5.942,33.698l-62.972-151.615
	c-2.704-6.511-7.779-11.586-14.29-14.291L55.528,173.798c-5.136-2.133-6.681-6.968-6.445-10.461c0.07-1.038-0.063-2.079-0.392-3.065
	l-7.159-21.48l15.718,5.239c2.868,0.954,6.031,0.209,8.17-1.929c2.138-2.138,2.885-5.301,1.929-8.17l-5.239-15.719l15.719,5.239
	c2.869,0.954,6.031,0.21,8.17-1.929c2.138-2.138,2.886-5.301,1.929-8.17l-5.239-15.719l15.718,5.239
	c2.865,0.954,6.031,0.21,8.17-1.929c2.138-2.138,2.885-5.301,1.929-8.17l-5.239-15.719l15.719,5.239
	c2.87,0.954,6.031,0.209,8.17-1.929c2.138-2.138,2.886-5.301,1.929-8.17l-5.239-15.719l15.718,5.239
	c2.865,0.954,6.03,0.21,8.17-1.929c2.138-2.137,2.885-5.3,1.929-8.17l-5.238-15.719l21.479,7.16c0.987,0.329,2.03,0.462,3.065,0.392
	c3.497-0.235,8.328,1.309,10.461,6.445l67.877,163.423c2.704,6.51,7.779,11.585,14.29,14.29l61.829,25.681l-4.227,23.971
	c-1.068,6.06-0.173,12.076,2.299,17.327c-3.914,2.762-6.576,6.932-7.422,11.727l-6.789,38.504
	c-1.069,6.06-0.174,12.076,2.299,17.327C305.665,364.917,303.003,369.086,302.157,373.882z M436.266,435.86l-6.789,38.504
	c-0.167,0.952-0.805,1.422-1.171,1.619c-0.365,0.196-1.11,0.468-1.996,0.083L318.662,429.25c-5.498-2.391-8.611-8.184-7.57-14.09
	l6.789-38.504c0.167-0.952,0.805-1.422,1.171-1.619c0.23-0.123,0.611-0.277,1.084-0.277c0.277,0,0.584,0.052,0.911,0.195
	l3.074,1.337l0,0l104.564,45.475c0.021,0.01,0.04,0.021,0.062,0.031C434.21,424.201,437.301,429.984,436.266,435.86z
	 M448.178,368.301l-6.788,38.504c-0.168,0.952-0.806,1.422-1.172,1.619c-0.364,0.196-1.107,0.467-1.995,0.082l-3.075-1.337
	c-0.029-0.013-0.059-0.02-0.087-0.033l0.003-0.009l-104.553-45.47c-5.455-2.409-8.542-8.188-7.506-14.058l6.789-38.504
	c0.167-0.951,0.805-1.422,1.171-1.618c0.365-0.196,1.11-0.467,1.995-0.082l3.074,1.337c0.03,0.013,0.06,0.021,0.089,0.034
	l-0.003,0.009l104.547,45.468C446.124,356.647,449.213,362.428,448.178,368.301z M460.09,300.743l-6.789,38.504
	c-0.167,0.952-0.805,1.422-1.171,1.619c-0.365,0.196-1.11,0.467-1.995,0.083l0,0l0,0l-107.646-46.815
	c-0.019-0.009-0.036-0.019-0.055-0.028c-5.462-2.406-8.554-8.189-7.518-14.063l6.789-38.504c0.167-0.952,0.805-1.423,1.171-1.619
	c0.365-0.196,1.109-0.468,1.995-0.083l3.074,1.337l0,0l104.568,45.477c0.02,0.008,0.038,0.02,0.059,0.029
	C458.034,289.084,461.127,294.867,460.09,300.743z M472.003,233.184l-6.789,38.504c-0.167,0.952-0.806,1.423-1.171,1.619
	c-0.366,0.197-1.11,0.467-1.995,0.083l-3.075-1.338c-0.03-0.013-0.06-0.021-0.089-0.033l0.003-0.009l-104.543-45.465
	c-5.462-2.406-8.552-8.188-7.516-14.062l6.79-38.504c0.167-0.951,0.805-1.422,1.17-1.618c0.365-0.196,1.11-0.467,1.996-0.083
	l3.075,1.337c0.029,0.013,0.059,0.021,0.088,0.033l-0.004,0.009l104.548,45.468C469.95,221.53,473.039,227.311,472.003,233.184z
	 M483.915,165.626l-6.79,38.504c-0.167,0.951-0.805,1.422-1.17,1.618c-0.365,0.196-1.109,0.468-1.996,0.083l0,0l-107.643-46.814
	c-0.02-0.009-0.038-0.02-0.059-0.03c-5.463-2.405-8.554-8.188-7.518-14.062l6.789-38.505c0.167-0.952,0.805-1.422,1.17-1.618
	c0.364-0.196,1.11-0.468,1.996-0.083l0,0l107.643,46.814c0.02,0.009,0.038,0.02,0.059,0.03
	C481.86,153.967,484.951,159.749,483.915,165.626z M495.827,98.067l-6.79,38.504c-0.167,0.951-0.805,1.422-1.17,1.618
	s-1.11,0.467-1.996,0.083l-3.075-1.337c-0.029-0.013-0.059-0.021-0.088-0.033l0.004-0.009L378.164,91.426
	c-5.458-2.407-8.547-8.187-7.512-14.059l6.789-38.504c0.167-0.951,0.805-1.422,1.171-1.619c0.365-0.196,1.109-0.468,1.995-0.083
	l107.648,46.816C493.756,86.368,496.868,92.162,495.827,98.067z"/>
</svg>