<?xml version="1.0" encoding="iso-8859-1"?>
<!-- Uploaded to: SVG Repo, www.svgrepo.com, Generator: SVG Repo Mixer Tools -->
<svg xmlns="http://www.w3.org/2000/svg" xmlns:xlink="http://www.w3.org/1999/xlink" version="1.1" id="Layer_1"  viewBox="0 0 358.159 358.159" xml:space="preserve" width="512" height="512">
<g>
	<path style="fill:#F2F2F2;" d="M260.423,127.69c5.76,3.01,9.82,8.82,10.4,15.62c2.4-1.05,5.04-1.65,7.83-1.65   c10.77,0,19.5,8.73,19.5,19.5c0,0.61-0.04,1.21-0.09,1.81c0.52-0.05,1.05-0.08,1.59-0.08c10.77,0,19.5,8.73,19.5,19.5H39.003   c0-10.77,8.73-19.5,19.5-19.5c0.54,0,1.07,0.03,1.59,0.08c-0.05-0.6-0.09-1.2-0.09-1.81c0-10.77,8.73-19.5,19.5-19.5   c2.79,0,5.44,0.6,7.84,1.65c0.84-9.99,9.2-17.83,19.41-17.83c3.71,0,7.16,1.05,10.11,2.85c2.53-7.84,9.88-13.52,18.56-13.52   c4.82,0,9.23,1.76,12.63,4.66c3.22-6.32,9.78-10.66,17.37-10.66c5.32,0,10.14,2.14,13.66,5.59c3.52-3.45,8.33-5.59,13.66-5.59   c7.58,0,14.14,4.34,17.36,10.66c3.41-2.9,7.81-4.66,12.64-4.66c3.19,0,6.2,0.77,8.85,2.12c4.58,2.34,8.11,6.44,9.7,11.4   c2.95-1.8,6.41-2.85,10.11-2.85C254.653,125.48,257.723,126.28,260.423,127.69z"/>
	<g>
		<path style="fill:#E6E6E6;" d="M214.328,116.72c1.528,0.734,2.945,1.662,4.221,2.75c0.866-1.701,1.981-3.251,3.286-4.619    C219.155,114.975,216.616,115.621,214.328,116.72z"/>
		<path style="fill:#E6E6E6;" d="M128.999,162.89c0.54,0,1.07,0.03,1.59,0.08c-0.05-0.6-0.09-1.2-0.09-1.81    c0-10.77,8.73-19.5,19.5-19.5c2.79,0,5.44,0.6,7.84,1.65c0.84-9.99,9.2-17.83,19.41-17.83c3.71,0,7.16,1.05,10.11,2.85    c2.53-7.84,9.88-13.52,18.56-13.52c0.302,0,0.598,0.027,0.897,0.041c-3.545-3.716-8.533-6.041-14.073-6.041    c-5.33,0-10.14,2.14-13.66,5.59c-3.52-3.45-8.34-5.59-13.66-5.59c-7.59,0-14.15,4.34-17.37,10.66c-3.4-2.9-7.81-4.66-12.63-4.66    c-8.68,0-16.03,5.68-18.56,13.52c-2.95-1.8-6.4-2.85-10.11-2.85c-10.21,0-18.57,7.84-19.41,17.83c-2.4-1.05-5.05-1.65-7.84-1.65    c-10.77,0-19.5,8.73-19.5,19.5c0,0.61,0.04,1.21,0.09,1.81c-0.52-0.05-1.05-0.08-1.59-0.08c-10.77,0-19.5,8.73-19.5,19.5h70.496    C109.499,171.62,118.229,162.89,128.999,162.89z"/>
	</g>
	<path style="fill:#E6E6E6;" d="M308.603,315.65v2.14c0,18.15-14.71,32.87-32.87,32.87H82.423c-18.16,0-32.87-14.72-32.87-32.87   v-2.14h52.24h154.58H308.603z"/>
	<path style="fill:#CCCCCC;" d="M107.553,317.79v-2.14h-5.76h-52.24v2.14c0,18.15,14.72,32.87,32.87,32.87h58   C122.273,350.66,107.553,335.94,107.553,317.79z"/>
	<path style="fill:#2BA5F7;" d="M319.153,182.39h13.96c0,56.89-30.85,106.59-76.74,133.26h-154.58   c-45.9-26.67-76.75-76.37-76.75-133.26h13.96H319.153z"/>
	<path style="fill:#2197D8;" d="M103.039,182.39H39.002h-13.96c0,56.89,30.85,106.59,76.75,133.26h77.996   C133.889,288.98,103.039,239.28,103.039,182.39z"/>
	<path style="fill:#FFFFFF;" d="M244.823,303.265c-2.585,0-5.099-1.337-6.491-3.733c-2.081-3.581-0.865-8.172,2.716-10.253   c24.425-14.195,43.434-36.644,53.524-63.21c1.472-3.873,5.803-5.818,9.675-4.348c3.872,1.471,5.819,5.802,4.349,9.674   c-11.309,29.772-32.621,54.935-60.011,70.853C247.399,302.937,246.102,303.265,244.823,303.265z"/>
	<circle style="fill:#FFFFFF;" cx="307.976" cy="205.574" r="7.5"/>
	<path style="fill:#333333;" d="M318.417,264.153c14.521-24.693,22.197-52.968,22.197-81.768c0-4.142-3.357-7.5-7.5-7.5h-7.541   c-2.761-9.523-10.621-16.901-20.427-18.937c-2.435-12.403-13.389-21.788-26.494-21.788c-0.835,0-1.666,0.038-2.489,0.114   c-1.348-3.083-3.263-5.862-5.598-8.222l60.121-89.332c2.313-3.437,1.402-8.097-2.034-10.41c-3.438-2.313-8.098-1.401-10.409,2.035   l-60.792,90.33c-1.95-0.456-3.974-0.699-6.046-0.699c-2.22,0-4.422,0.277-6.56,0.816c-1.151-1.646-2.482-3.14-3.949-4.475   l44.93-103.837c1.646-3.802-0.103-8.217-3.904-9.862c-3.804-1.645-8.217,0.104-9.861,3.905l-44.652,103.195   c-1.522-0.265-3.082-0.409-4.67-0.409c-3.679,0-7.295,0.757-10.633,2.19c-4.999-5.173-11.923-8.19-19.367-8.19   c-4.872,0-9.558,1.29-13.661,3.707c-4.102-2.417-8.788-3.707-13.66-3.707c-7.444,0-14.368,3.017-19.368,8.19   c-3.337-1.433-6.954-2.19-10.632-2.19c-8.997,0-17.154,4.402-22.106,11.483c-2.138-0.54-4.341-0.816-6.561-0.816   c-10.928,0-20.563,6.704-24.757,16.298c-0.824-0.076-1.655-0.114-2.49-0.114c-13.105,0-24.06,9.385-26.494,21.788   c-9.806,2.036-17.667,9.414-20.427,18.937h-7.54c-4.142,0-7.5,3.358-7.5,7.5c0,28.8,7.676,57.075,22.197,81.768   c9.914,16.858,22.838,31.768,37.993,43.999H49.548c-4.142,0-7.5,3.358-7.5,7.5v2.136c0,22.261,18.111,40.372,40.372,40.372h193.314   c22.261,0,40.372-18.111,40.372-40.372v-2.136c0-4.142-3.357-7.5-7.5-7.5h-28.183C295.579,295.921,308.503,281.011,318.417,264.153   z M58.506,170.386c0.331,0,0.656,0.029,0.98,0.056c2.205,0.179,4.382-0.625,5.94-2.198c1.559-1.574,2.341-3.757,2.139-5.962   c-0.04-0.436-0.06-0.802-0.06-1.122c0-6.616,5.383-11.999,11.999-11.999c1.662,0,3.282,0.341,4.814,1.015   c2.217,0.974,4.767,0.818,6.849-0.418c2.082-1.237,3.438-3.402,3.643-5.814c0.521-6.149,5.767-10.967,11.942-10.967   c2.176,0,4.324,0.607,6.212,1.756c1.96,1.194,4.361,1.423,6.515,0.623c2.152-0.801,3.819-2.543,4.523-4.729   c1.603-4.975,6.19-8.317,11.416-8.317c3.638,0,6.233,1.561,7.769,2.87c1.747,1.49,4.077,2.097,6.331,1.648   c2.251-0.449,4.173-1.904,5.216-3.949c2.066-4.052,6.16-6.569,10.684-6.569c3.159,0,6.143,1.223,8.404,3.445   c2.917,2.865,7.594,2.867,10.513,0c2.261-2.221,5.246-3.445,8.404-3.445c4.524,0,8.618,2.517,10.684,6.568   c1.043,2.045,2.965,3.5,5.216,3.949c2.25,0.448,4.583-0.159,6.331-1.648c1.283-1.094,3.316-2.35,6.069-2.738l-8.978,20.749   c-1.646,3.802,0.103,8.217,3.904,9.862c0.971,0.42,1.98,0.619,2.975,0.619c2.9,0,5.662-1.692,6.887-4.523l8.184-18.915   c0.048,0.132,0.102,0.26,0.145,0.395c0.704,2.186,2.371,3.928,4.523,4.729c2.152,0.799,4.553,0.572,6.515-0.623   c0.684-0.416,1.403-0.759,2.144-1.03l-13.453,19.99c-2.313,3.437-1.402,8.097,2.034,10.41c1.285,0.865,2.74,1.279,4.181,1.279   c2.412,0,4.781-1.162,6.229-3.313l15.482-23.004c0.839,1.464,1.388,3.113,1.538,4.879c0.205,2.412,1.562,4.578,3.643,5.814   c2.081,1.237,4.634,1.392,6.849,0.418c1.532-0.674,3.152-1.015,4.814-1.015c6.616,0,11.999,5.383,11.999,11.999   c0,0.319-0.02,0.686-0.06,1.122c-0.202,2.206,0.58,4.388,2.139,5.962s3.731,2.378,5.94,2.199c0.324-0.026,0.649-0.056,0.98-0.056   c3.779,0,7.15,1.76,9.351,4.499H49.155C51.356,172.146,54.727,170.386,58.506,170.386z M275.735,343.159H82.42   c-12.15,0-22.333-8.585-24.801-20.008h242.917C298.068,334.574,287.885,343.159,275.735,343.159z M254.284,308.151H103.876   c-21.065-12.626-38.748-30.422-51.204-51.603c-11.904-20.243-18.735-43.147-19.936-66.664h292.688   c-1.2,23.516-8.031,46.421-19.937,66.664C293.031,277.729,275.348,295.526,254.284,308.151z"/>
</g>















</svg>