<?xml version="1.0" encoding="utf-8"?><svg version="1.1" id="Layer_1" xmlns="http://www.w3.org/2000/svg" xmlns:xlink="http://www.w3.org/1999/xlink" x="0px" y="0px" viewBox="0 0 91.82 122.88" style="enable-background:new 0 0 91.82 122.88" xml:space="preserve"><style type="text/css">.st0{fill:#D1372D;} .st1{fill:#4BA042;}</style><g><path class="st0" d="M64.78,31.2c-5.49,1.99-11.76,2.62-17.96,2.41c-5.65-0.19-11.07-0.64-15.95-1.88 c-7.84-1.21-15.11-1.9-22.23,2.95C2.06,39.15-0.18,46.31,0.01,54.1C0.3,65.56,5.72,78.32,10.69,86.5 c4.1,6.76,9.32,13.23,15.57,19.44c5.92,5.87,12.74,11.51,20.39,16.94c7.32-5.48,13.56-10.85,18.83-16.16 c5.56-5.6,10.07-11.11,13.67-16.56c4.39-6.63,9.7-18.23,11.79-29.39c1.47-7.87,1.32-15.44-1.98-20.58 c-0.76-1.19-1.66-2.24-2.68-3.2c-1.06-0.98-2.25-1.85-3.61-2.63C75.94,30.51,70.47,30.42,64.78,31.2L64.78,31.2L64.78,31.2z M32.11,50.95c0,1.42-0.71,3.03-2.75,5.61c-1.98-3.07-2.57-4.22-2.57-5.65c0-1.42,0.81-2.85,2.57-2.85 C31.11,48.06,32.11,49.52,32.11,50.95L32.11,50.95z M16.85,50.95c0,1.42-0.71,3.03-2.75,5.61c-1.98-3.07-2.56-4.22-2.57-5.65 c0-1.42,0.81-2.85,2.57-2.85C15.85,48.06,16.85,49.52,16.85,50.95L16.85,50.95z M56.73,101.44c0,1.42-0.71,3.03-2.75,5.61 c-1.98-3.07-2.57-4.22-2.57-5.65c0-1.42,0.81-2.85,2.57-2.85C55.73,98.55,56.73,100.02,56.73,101.44L56.73,101.44z M70.69,67.23 c1.75,0,2.75,1.47,2.75,2.89c0,1.42-0.71,3.03-2.75,5.61c-1.98-3.07-2.57-4.22-2.57-5.65C68.11,68.65,68.93,67.23,70.69,67.23 L70.69,67.23z M41.22,100.53c0,1.42-0.71,3.03-2.75,5.61c-1.98-3.07-2.56-4.22-2.57-5.65c0-1.42,0.81-2.85,2.57-2.85 C40.22,97.64,41.22,99.1,41.22,100.53L41.22,100.53z M33.31,85.73c0,1.42-0.71,3.03-2.75,5.61c-1.98-3.07-2.56-4.22-2.57-5.65 c0-1.42,0.81-2.85,2.57-2.85C32.31,82.84,33.31,84.31,33.31,85.73L33.31,85.73z M64.77,85.73c0,1.42-0.71,3.03-2.75,5.61 c-1.98-3.07-2.56-4.22-2.57-5.65c0-1.42,0.81-2.85,2.57-2.85C63.77,82.84,64.77,84.31,64.77,85.73L64.77,85.73z M80.3,50.95 c0,1.42-0.71,3.03-2.75,5.61c-1.98-3.07-2.56-4.22-2.57-5.65c0-1.42,0.81-2.85,2.57-2.85C79.3,48.06,80.3,49.52,80.3,50.95 L80.3,50.95z M48.81,84.24c0,1.42-0.71,3.03-2.75,5.61c-1.98-3.06-2.56-4.22-2.57-5.65c0-1.42,0.81-2.85,2.57-2.85 C47.81,81.34,48.81,82.81,48.81,84.24L48.81,84.24z M58.52,68.97c0,1.42-0.71,3.03-2.75,5.61c-1.98-3.07-2.57-4.22-2.57-5.65 c0-1.42,0.82-2.85,2.57-2.85C57.52,66.08,58.52,67.55,58.52,68.97L58.52,68.97z M61.94,48.06c1.75,0,2.75,1.47,2.75,2.89 c0,1.42-0.71,3.03-2.75,5.61c-1.98-3.07-2.56-4.22-2.57-5.65C59.36,49.48,60.18,48.06,61.94,48.06L61.94,48.06z M40.72,68.97 c0,1.42-0.71,3.03-2.75,5.61c-1.98-3.07-2.57-4.22-2.57-5.65c0-1.42,0.81-2.85,2.57-2.85C39.72,66.08,40.72,67.55,40.72,68.97 L40.72,68.97z M46.86,48.06c1.75,0,2.75,1.47,2.75,2.89c0,1.42-0.71,3.03-2.75,5.61c-1.98-3.07-2.56-4.22-2.57-5.65 C44.29,49.48,45.11,48.06,46.86,48.06L46.86,48.06z M25.22,68.97c0,1.42-0.71,3.03-2.75,5.61c-1.98-3.07-2.58-4.22-2.58-5.65 c0-1.42,0.81-2.85,2.58-2.85C24.22,66.08,25.22,67.55,25.22,68.97L25.22,68.97z"/><path class="st1" d="M24.46,32.43c2.62,0.26,5.26,0.68,7.96,1.12c4.73,0.74,9.66,1.52,14.78,1.48c4.9-0.05,9.34-0.16,13.45-0.89 c3-0.53,5.8-1.7,8.68-1.92c0.42-0.24,0.84-0.48,1.25-0.74c4.61-2.95,8.08-7.46,9.48-14.08c-3.42-0.4-6.48-0.29-9.2,0.26 c-3.33,0.67-6.15,2.03-8.5,3.93c-0.83,0.66-2.03,0.53-2.69-0.29c-0.46-0.58-0.54-1.32-0.26-1.96l0,0 c1.69-3.93,2.88-7.97,3.16-11.77V7.55l0,0c0.2-2.7-0.06-5.27-0.91-7.55c-2.79,0.59-5.2,2.08-7.19,4.21 c-2.61,2.8-4.54,6.71-5.75,11.26c-0.26,1.02-1.32,1.63-2.34,1.36c-0.58-0.16-1.03-0.55-1.26-1.07l0,0 c-2.05-4.51-4.55-8.72-7.46-11.57c-1.93-1.91-4.05-3.18-6.29-3.51c-1.39,2.69-1.86,5.38-1.58,8.02c0.35,3.3,1.86,6.59,4.23,9.75 c0.64,0.84,0.46,2.04-0.38,2.68c-0.62,0.47-1.43,0.49-2.06,0.14c-3.93-2-7.73-3.42-11.38-4.14c-2.88-0.56-5.67-0.7-8.33-0.32 c2.26,8,6.61,12.7,12.27,15.47C24.25,32.32,24.35,32.37,24.46,32.43L24.46,32.43L24.46,32.43z"/></g></svg>